<svg width="25" height="29" viewBox="0 0 25 29" fill="none" xmlns="http://www.w3.org/2000/svg">
<path d="M0 28.125V9.375L12.2754 0L24.5509 9.375V28.125H0ZM3.06886 25H21.482V10.9375L12.2754 3.90625L3.06886 10.9375V25ZM9.20659 23.4375H10.741V17.1875C11.3804 17.1875 11.9241 16.9594 12.3721 16.5031C12.8202 16.0469 13.0437 15.4937 13.0427 14.8438V10.1562H11.5082V14.8438H10.741V10.1562H9.20659V14.8438H8.43937V10.1562H6.90494V14.8438C6.90494 15.4948 7.12897 16.0484 7.57702 16.5047C8.02507 16.9609 8.56826 17.1885 9.20659 17.1875V23.4375ZM15.3443 23.4375H16.8787V10.1562C16.0348 10.1562 15.3121 10.4625 14.7106 11.075C14.1091 11.6875 13.8089 12.4229 13.8099 13.2812V17.9688H15.3443V23.4375Z" fill="white"/>
</svg>
