<svg width="19" height="28" viewBox="0 0 19 28" fill="none" xmlns="http://www.w3.org/2000/svg">
<path d="M16.5885 3.23745H12.6154C11.8975 3.23974 11.9244 4.30975 12.6154 4.30346H16.5885V4.85046H12.6154C11.9015 4.84418 11.9278 5.91361 12.6154 5.91647H16.5885V6.47548H12.6154C11.9015 6.47548 11.9278 7.54434 12.6154 7.54148H16.5885V8.0742H12.6154C11.9164 8.07934 11.9278 9.14935 12.6154 9.15278H16.5885V9.68664H12.6154C11.9164 9.68435 11.9135 10.7526 12.6154 10.7526H16.5885V11.2854H12.6154C11.9164 11.2876 11.9135 12.3571 12.6154 12.3519H16.5885V12.8978H12.6154C11.9164 12.8915 11.9135 13.9598 12.6154 13.9638H16.5885V14.4954H12.6154C11.9164 14.4948 11.9278 15.5654 12.6154 15.562H16.5885V25.9414C16.5908 27.5229 18.9932 27.4943 19 25.9414V1.65188C18.9932 0.929396 18.3999 0.0160044 17.4236 0.0131464H12.6154C11.8975 0.013718 11.9244 1.08372 12.6154 1.07915L16.5885 1.0923V1.62387H12.6154C11.8987 1.62044 11.9255 2.68988 12.6154 2.69045H16.5885V3.23745ZM12.3422 21.639C12.3399 19.7928 10.4263 17.8071 8.13993 19.0932V12.0318L6.66124 0.385819C6.63038 0.0777355 6.36916 0.00514426 6.19369 0C6.01249 0.00514426 5.64954 0.0777355 5.6101 0.385819L4.13884 12.0318V19.0932C1.8525 17.8071 0.000571584 19.8054 0 21.6247C0.000571584 23.2435 1.24663 24.573 2.9328 24.569C4.63155 24.573 5.85359 23.0829 5.85359 21.6247V14.2896H6.42518V21.6247C6.42518 23.2572 7.68952 24.4655 9.09448 24.5421C9.07104 25.4372 9.36312 26.7141 9.91299 27.2206C10.5577 27.815 11.3254 27.0548 11.0104 26.4358C10.7063 25.8596 10.408 25.5184 10.6503 24.2603C11.6632 23.7916 12.3399 22.8051 12.3422 21.639ZM2.99796 23.0914C2.61253 23.0914 2.24289 22.9383 1.97035 22.6658C1.69782 22.3932 1.54471 22.0236 1.54471 21.6382C1.54471 21.2528 1.69782 20.8831 1.97035 20.6106C2.24289 20.338 2.61253 20.1849 2.99796 20.1849C3.79018 20.1895 4.43549 20.8394 4.44121 21.639C4.43958 22.0222 4.28729 22.3892 4.01724 22.661C3.74719 22.9328 3.38106 23.0874 2.99796 23.0914ZM7.89701 21.639C7.89834 21.2556 8.05056 20.888 8.32075 20.6159C8.59094 20.3438 8.95738 20.189 9.34083 20.1849C9.72441 20.1884 10.0911 20.343 10.3614 20.6153C10.6316 20.8876 10.7835 21.2554 10.7841 21.639C10.7835 22.0225 10.6315 22.3902 10.3613 22.6622C10.091 22.9341 9.72426 23.0884 9.34083 23.0914C8.95749 23.088 8.59096 22.9336 8.32069 22.6617C8.05042 22.3898 7.8982 22.0224 7.89701 21.639Z" fill="white"/>
</svg>
