<svg width="25" height="25" viewBox="0 0 25 25" fill="none" xmlns="http://www.w3.org/2000/svg">
<path d="M12.5 25C10.7708 25 9.14583 24.6717 7.625 24.015C6.10417 23.3583 4.78125 22.4679 3.65625 21.3438C2.53125 20.2188 1.64083 18.8958 0.985 17.375C0.329167 15.8542 0.000833333 14.2292 0 12.5C0 10.7708 0.328333 9.14583 0.985 7.625C1.64167 6.10417 2.53208 4.78125 3.65625 3.65625C4.78125 2.53125 6.10417 1.64083 7.625 0.985C9.14583 0.329167 10.7708 0.000833333 12.5 0C14.2292 0 15.8542 0.328333 17.375 0.985C18.8958 1.64167 20.2188 2.53208 21.3438 3.65625C22.4688 4.78125 23.3596 6.10417 24.0162 7.625C24.6729 9.14583 25.0008 10.7708 25 12.5C25 14.2292 24.6717 15.8542 24.015 17.375C23.3583 18.8958 22.4679 20.2188 21.3438 21.3438C20.2188 22.4688 18.8958 23.3596 17.375 24.0162C15.8542 24.6729 14.2292 25.0008 12.5 25ZM18.75 9.375L20.4375 8.8125L20.9375 7.125C20.2708 6.125 19.4688 5.26583 18.5312 4.5475C17.5938 3.82917 16.5625 3.2925 15.4375 2.9375L13.75 4.125V5.875L18.75 9.375ZM6.25 9.375L11.25 5.875V4.125L9.5625 2.9375C8.4375 3.29167 7.40625 3.82792 6.46875 4.54625C5.53125 5.26458 4.72917 6.12417 4.0625 7.125L4.5625 8.8125L6.25 9.375ZM4.9375 19L6.375 18.875L7.3125 17.1875L5.5 11.75L3.75 11.125L2.5 12.0625C2.5 13.4167 2.6875 14.6508 3.0625 15.765C3.4375 16.8792 4.0625 17.9575 4.9375 19ZM12.5 22.5C13.0417 22.5 13.5729 22.4583 14.0938 22.375C14.6146 22.2917 15.125 22.1667 15.625 22L16.5 20.125L15.6875 18.75H9.3125L8.5 20.125L9.375 22C9.875 22.1667 10.3854 22.2917 10.9062 22.375C11.4271 22.4583 11.9583 22.5 12.5 22.5ZM9.6875 16.25H15.3125L17.0625 11.25L12.5 8.0625L8 11.25L9.6875 16.25ZM20.0625 19C20.9375 17.9583 21.5625 16.88 21.9375 15.765C22.3125 14.65 22.5 13.4158 22.5 12.0625L21.25 11.1875L19.5 11.75L17.6875 17.1875L18.625 18.875L20.0625 19Z" fill="white"/>
</svg>
