<svg width="27" height="27" viewBox="0 0 27 27" fill="none" xmlns="http://www.w3.org/2000/svg">
<path d="M3.44231 16.3837C1.86052 14.3786 1.00017 11.8991 1 9.34521V3.07598C3.63603 1.71191 6.56079 1 9.52885 1C12.4969 1 15.4217 1.71191 18.0577 3.07598" stroke="white" stroke-width="1.92308" stroke-linecap="round" stroke-linejoin="round"/>
<path d="M15.0191 25.8831C14.3462 26.0352 13.6467 26.0256 12.9782 25.8551C12.3096 25.6846 11.691 25.3581 11.173 24.9023C9.37348 23.351 8.04093 21.3298 7.32434 19.0646C6.60776 16.7993 6.53538 14.3794 7.1153 12.0754L8.51915 6.46003C11.5682 5.68675 14.7615 5.68255 17.8125 6.44783C20.8635 7.2131 23.6768 8.7239 25.9999 10.8446L24.5961 16.4408C24.0302 18.7469 22.8352 20.8506 21.1443 22.5177C19.4535 24.1849 17.333 25.3499 15.0191 25.8831Z" stroke="white" stroke-width="1.92308" stroke-linecap="round" stroke-linejoin="round"/>
<path d="M10.8271 12.5574C11.0697 12.3035 11.3772 12.1209 11.7162 12.0294C12.0552 11.9378 12.4128 11.9409 12.7502 12.0381C13.0805 12.1158 13.3843 12.2795 13.6308 12.5126C13.8774 12.7456 14.0579 13.0397 14.1541 13.3651M18.4425 14.4612C18.6774 14.2089 18.9757 14.0243 19.3063 13.9268C19.637 13.8292 19.9877 13.8224 20.3219 13.9069C20.6561 13.9914 20.9615 14.1643 21.206 14.4072C21.4505 14.6502 21.6252 14.9545 21.7118 15.2881" stroke="white" stroke-width="1.92308" stroke-linecap="round" stroke-linejoin="round"/>
</svg>
