<svg width="30" height="21" viewBox="0 0 30 21" fill="none" xmlns="http://www.w3.org/2000/svg">
<path d="M0 20.4545V0H2.72727V13.6364H13.6364V2.72727H24.5455C26.0455 2.72727 27.3295 3.26136 28.3977 4.32955C29.4659 5.39773 30 6.68182 30 8.18182V20.4545H27.2727V16.3636H2.72727V20.4545H0ZM8.18182 12.2727C7.04545 12.2727 6.07955 11.875 5.28409 11.0795C4.48864 10.2841 4.09091 9.31818 4.09091 8.18182C4.09091 7.04545 4.48864 6.07955 5.28409 5.28409C6.07955 4.48864 7.04545 4.09091 8.18182 4.09091C9.31818 4.09091 10.2841 4.48864 11.0795 5.28409C11.875 6.07955 12.2727 7.04545 12.2727 8.18182C12.2727 9.31818 11.875 10.2841 11.0795 11.0795C10.2841 11.875 9.31818 12.2727 8.18182 12.2727ZM16.3636 13.6364H27.2727V8.18182C27.2727 7.43182 27.0055 6.78955 26.4709 6.255C25.9364 5.72045 25.2945 5.45364 24.5455 5.45455H16.3636V13.6364ZM8.18182 9.54545C8.56818 9.54545 8.89227 9.41455 9.15409 9.15273C9.41591 8.89091 9.54636 8.56727 9.54545 8.18182C9.54545 7.79545 9.41455 7.47136 9.15273 7.20955C8.89091 6.94773 8.56727 6.81727 8.18182 6.81818C7.79545 6.81818 7.47136 6.94909 7.20955 7.21091C6.94773 7.47273 6.81727 7.79636 6.81818 8.18182C6.81818 8.56818 6.94909 8.89227 7.21091 9.15409C7.47273 9.41591 7.79636 9.54636 8.18182 9.54545Z" fill="white"/>
</svg>
