<svg width="34" height="26" viewBox="0 0 34 26" fill="none" xmlns="http://www.w3.org/2000/svg">
<path d="M29.409 0.413749C29.0542 0.184219 28.6484 0.0453576 28.2274 0.00937194C27.8064 -0.0266137 27.3829 0.0413781 26.9943 0.207371L14.2608 5.22237C13.9593 5.34507 13.6369 5.40815 13.3114 5.40812H5.15947C4.47528 5.40812 3.81912 5.67991 3.33532 6.1637C2.85153 6.6475 2.57973 7.30366 2.57973 7.98785V8.19423H0V14.3856H2.57973V14.6539C2.5959 15.3273 2.87481 15.9677 3.35687 16.4381C3.83892 16.9086 4.48587 17.1719 5.15947 17.1717L8.25515 23.7346C8.46477 24.1765 8.79479 24.5504 9.2073 24.8132C9.61982 25.076 10.0981 25.2172 10.5872 25.2205H11.8874C12.568 25.215 13.2189 24.9408 13.6982 24.4576C14.1776 23.9744 14.4465 23.3214 14.4465 22.6407V17.4194L26.9943 22.4344C27.303 22.5572 27.6321 22.6202 27.9643 22.6201C28.4797 22.6118 28.9815 22.4541 29.409 22.1661C29.7484 21.9369 30.0284 21.6302 30.2258 21.2713C30.4232 20.9124 30.5323 20.5117 30.5441 20.1023V2.53945C30.5422 2.1195 30.4378 1.70637 30.24 1.33592C30.0422 0.965473 29.7569 0.648918 29.409 0.413749ZM11.8668 7.98785V14.6539H5.15947V7.98785H11.8668ZM11.8668 22.6407H10.5666L8.02813 17.1717H11.8668V22.6407ZM15.2101 14.9635C14.9651 14.8382 14.7096 14.7346 14.4465 14.6539V7.84339C14.7071 7.78963 14.9625 7.71368 15.2101 7.61637L27.9643 2.53945V20.0404L15.2101 14.9635ZM30.606 8.71018V13.8696C31.2902 13.8696 31.9463 13.5979 32.4301 13.1141C32.9139 12.6303 33.1857 11.9741 33.1857 11.2899C33.1857 10.6057 32.9139 9.94956 32.4301 9.46576C31.9463 8.98197 31.2902 8.71018 30.606 8.71018Z" fill="white"/>
</svg>
