<svg width="26" height="25" viewBox="0 0 26 25" fill="none" xmlns="http://www.w3.org/2000/svg">
<path d="M0.50507 4.39106C-0.157303 5.05422 -0.0157573 5.98795 0.511326 6.51425C0.532441 6.53459 2.64938 8.5569 5.62654 11.5341C5.66276 11.5707 5.70587 11.5997 5.75339 11.6195C5.80091 11.6394 5.85189 11.6496 5.90338 11.6496C5.95487 11.6496 6.00585 11.6394 6.05336 11.6195C6.10088 11.5997 6.144 11.5707 6.18021 11.5341C6.25352 11.4607 6.2947 11.3613 6.2947 11.2576C6.2947 11.1539 6.25352 11.0545 6.18021 10.9812C5.73133 10.5323 5.30435 10.1076 4.89926 9.70569L6.14189 8.46305C6.21312 8.38931 6.25253 8.29054 6.25164 8.18802C6.25075 8.08549 6.20963 7.98742 6.13713 7.91493C6.06463 7.84243 5.96656 7.80131 5.86404 7.80042C5.76152 7.79953 5.66275 7.83894 5.589 7.91016L4.34324 9.15593C3.74171 8.56197 3.13824 7.96998 2.53286 7.37995L5.35987 4.55294C5.4311 4.47919 5.47051 4.38042 5.46962 4.2779C5.46873 4.17538 5.4276 4.07731 5.35511 4.00481C5.28261 3.93231 5.18454 3.89119 5.08202 3.8903C4.9795 3.88941 4.88073 3.92882 4.80698 4.00005L1.97136 6.83566C1.39579 6.27808 1.06422 5.96136 1.05874 5.95589C0.893736 5.79088 0.677115 5.32636 1.05874 4.94473L4.96886 1.03462C5.11979 0.88134 5.52175 0.577133 5.96281 1.01585C5.98236 1.03774 7.95697 3.28059 10.9709 6.2945C11.0446 6.36573 11.1434 6.40514 11.2459 6.40425C11.3484 6.40336 11.4465 6.36224 11.519 6.28974C11.5915 6.21725 11.6326 6.11917 11.6335 6.01665C11.6344 5.91413 11.595 5.81536 11.5238 5.74161C8.52863 2.74725 6.56888 0.521609 6.5329 0.480944C5.80406 -0.246337 4.92507 -0.0281528 4.41597 0.480944L0.50507 4.39106ZM17.0902 18.8585C17.0169 18.7852 16.9175 18.744 16.8138 18.744C16.7101 18.744 16.6107 18.7852 16.5373 18.8585L15.2931 20.1019C14.8955 19.699 14.4967 19.2973 14.0966 18.8968C14.0229 18.8256 13.9241 18.7862 13.8216 18.7871C13.7191 18.788 13.621 18.8291 13.5485 18.9016C13.476 18.9741 13.4349 19.0721 13.434 19.1747C13.4331 19.2772 13.4725 19.376 13.5437 19.4497C15.2192 21.121 16.869 22.8179 18.4924 24.5399C18.7606 24.8089 19.1282 24.9567 19.527 24.9567C19.9376 24.9567 20.3528 24.7964 20.6101 24.5383L24.5187 20.5836C25.0105 20.0917 25.0387 19.2573 24.5797 18.7967L19.3354 13.5532C19.2617 13.482 19.1629 13.4426 19.0604 13.4435C18.9578 13.4444 18.8598 13.4855 18.7873 13.558C18.7148 13.6305 18.6737 13.7286 18.6728 13.8311C18.6719 13.9336 18.7113 14.0324 18.7825 14.1061L24.0268 19.3496C24.1832 19.506 24.1535 19.8438 23.965 20.0323L20.0557 23.987C19.9657 24.0777 19.7616 24.1747 19.527 24.1747C19.3925 24.1747 19.2001 24.1418 19.0547 23.9956C19.0468 23.987 18.7192 23.6374 18.1506 23.0423L21.0003 20.1926C21.0716 20.1189 21.111 20.0201 21.1101 19.9176C21.1092 19.8151 21.0681 19.717 20.9956 19.6445C20.9231 19.572 20.825 19.5309 20.7225 19.53C20.62 19.5291 20.5212 19.5685 20.4474 19.6397L17.6095 22.4777C17.0234 21.8685 16.4342 21.2621 15.8421 20.6587L17.0902 19.4106C17.1633 19.3373 17.2043 19.238 17.2043 19.1345C17.2043 19.0311 17.1633 18.9318 17.0902 18.8585ZM0.11093 24.8668C0.160829 24.9177 0.223709 24.954 0.292766 24.9718C0.361823 24.9896 0.434428 24.9882 0.502724 24.9677L8.32296 22.638C8.3858 22.6196 8.44287 22.5854 8.48874 22.5387L21.8535 9.08398C21.8723 9.06521 21.8817 9.04097 21.8958 9.01985L24.7548 6.16078C24.8685 6.04796 24.9587 5.91376 25.0203 5.76592C25.0818 5.61808 25.1135 5.45952 25.1135 5.29938C25.1135 5.13924 25.0818 4.98067 25.0203 4.83283C24.9587 4.68499 24.8685 4.5508 24.7548 4.43798L20.6609 0.344872C20.2011 -0.114957 19.398 -0.114957 18.9381 0.344872L16.0142 3.26886C15.9954 3.28763 15.9852 3.31187 15.9711 3.33376L2.58603 16.7197C2.54228 16.7632 2.50957 16.8165 2.49063 16.8753L0.0194338 24.4726C-0.00279789 24.5404 -0.00602333 24.613 0.0101081 24.6825C0.0262395 24.752 0.0611104 24.8157 0.11093 24.8668ZM16.3129 4.0978L17.1254 4.91032L4.98606 17.0825L3.63551 16.776L16.3129 4.0978ZM5.47405 17.7011L17.6791 5.464L19.5841 7.369L7.26879 19.5263H5.47405V17.7011ZM21.0238 8.80949L8.32061 21.5987L7.86938 20.0331L20.137 7.92189L21.0238 8.80949ZM3.1225 17.461L4.69202 17.8176V19.9173C4.69202 20.021 4.73322 20.1205 4.80655 20.1938C4.87988 20.2672 4.97933 20.3084 5.08303 20.3084H7.13506L7.63087 22.0288L0.993053 24.0065L3.1225 17.461ZM19.4918 0.897763C19.5748 0.818183 19.6853 0.773752 19.8003 0.773752C19.9153 0.773752 20.0258 0.818183 20.1088 0.897763L24.2027 4.99165C24.2435 5.03201 24.276 5.08008 24.298 5.13307C24.3201 5.18606 24.3315 5.24292 24.3314 5.30033C24.3313 5.35774 24.3198 5.41456 24.2976 5.46749C24.2754 5.52043 24.2429 5.56842 24.2019 5.60867L21.5657 8.24565L16.8556 3.53553L19.4918 0.897763Z" fill="white"/>
</svg>
