<svg width="26" height="25" viewBox="0 0 26 25" fill="none" xmlns="http://www.w3.org/2000/svg">
<path d="M19.9337 5.42786C21.0923 6.61738 21.9367 8.07645 22.3908 9.67361H25.5V15.1397H22.3908C21.9372 16.7382 21.0928 18.1986 19.9337 19.3891L21.491 22.0848L16.759 24.817L15.2053 22.1213C13.5943 22.5276 11.9076 22.5276 10.2965 22.1213L8.74104 24.817L4.00896 22.0848L5.56629 19.3891C4.40722 18.1986 3.56279 16.7382 3.10918 15.1397H0V9.67543H3.10918C3.56279 8.07697 4.40722 6.61659 5.56629 5.42604L4.00714 2.73214L8.73739 0H8.74286L10.2984 2.69207C11.9094 2.28575 13.5961 2.28575 15.2071 2.69207L16.7571 0H16.7608L21.4929 2.73214L19.9355 5.42786H19.9337ZM18.2143 12.4076C18.2143 10.9584 17.6386 9.56849 16.6138 8.54374C15.5891 7.51899 14.1992 6.94329 12.75 6.94329C11.3008 6.94329 9.91092 7.51899 8.88617 8.54374C7.86141 9.56849 7.28571 10.9584 7.28571 12.4076C7.28571 13.8568 7.86141 15.2467 8.88617 16.2714C9.91092 17.2962 11.3008 17.8719 12.75 17.8719C14.1992 17.8719 15.5891 17.2962 16.6138 16.2714C17.6386 15.2467 18.2143 13.8568 18.2143 12.4076Z" fill="white"/>
</svg>
