<svg width="26" height="26" viewBox="0 0 26 26" fill="none" xmlns="http://www.w3.org/2000/svg">
<path d="M16.4286 25H23.2857C23.7404 25 24.1764 24.8194 24.4979 24.4979C24.8194 24.1764 25 23.7404 25 23.2857V2.71429C25 2.25963 24.8194 1.82359 24.4979 1.5021C24.1764 1.18061 23.7404 1 23.2857 1H16.4286C15.9739 1 15.5379 1.18061 15.2164 1.5021C14.8949 1.82359 14.7143 2.25963 14.7143 2.71429V23.2857C14.7143 23.7404 14.8949 24.1764 15.2164 24.4979C15.5379 24.8194 15.9739 25 16.4286 25ZM16.4286 25H7M11.2857 19.8571V25M14.7143 9.57143H25M17.2857 19.8571H22.4286M2.71429 6.14286H14.7143V19.8571H2.71429C2.25963 19.8571 1.82359 19.6765 1.5021 19.355C1.18061 19.0335 1 18.5975 1 18.1429V7.85714C1 7.40249 1.18061 6.96645 1.5021 6.64496C1.82359 6.32347 2.25963 6.14286 2.71429 6.14286Z" stroke="white" stroke-width="1.71429"/>
</svg>
