<svg width="25" height="29" viewBox="0 0 25 29" fill="none" xmlns="http://www.w3.org/2000/svg">
<path d="M3.01829 28.5C2.5907 28.5 2.23203 28.356 1.94227 28.068C1.65252 27.78 1.50814 27.424 1.50915 27V25.8524C1.50915 24.6119 0.970625 23.4499 0.44707 22.3254C0.436257 22.3022 0.425572 22.2789 0.415015 22.2555C0.138339 21.6425 0 20.974 0 20.25V6C0 3.925 0.968369 2.406 2.90511 1.443C4.84184 0.480001 7.89787 -0.000998444 12.0732 1.55602e-06C16.3994 1.55602e-06 19.4931 0.462501 21.3544 1.3875C23.2157 2.3125 24.1463 3.85 24.1463 6V20.25C24.1463 20.975 24.008 21.644 23.7313 22.257C23.7213 22.2792 23.7112 22.3012 23.701 22.3232C23.1774 23.4496 22.6372 24.6131 22.6372 25.8552V27C22.6372 27.425 22.4923 27.7815 22.2026 28.0695C21.9128 28.3575 21.5546 28.501 21.128 28.5H19.6189C19.1913 28.5 18.8326 28.356 18.5429 28.068C18.2531 27.78 18.1087 27.424 18.1098 27C18.1098 26.1716 17.4382 25.5 16.6098 25.5H7.53658C6.70816 25.5 6.03659 26.1716 6.03659 27C6.03659 27.425 5.89171 27.7815 5.60195 28.0695C5.31219 28.3575 4.95402 28.501 4.52744 28.5H3.01829ZM12.1486 4.5H20.5998H3.69741H12.1486ZM18.1098 15H3.01829H21.128H18.1098ZM3.01829 9.75C3.01829 10.9926 4.02565 12 5.26829 12H18.878C20.1207 12 21.128 10.9926 21.128 9.75C21.128 8.50736 20.1207 7.5 18.878 7.5H5.26829C4.02565 7.5 3.01829 8.50736 3.01829 9.75ZM6.79116 21C7.41997 21 7.95471 20.781 8.39538 20.343C8.83605 19.905 9.05588 19.374 9.05488 18.75C9.05488 18.125 8.83454 17.5935 8.39387 17.1555C7.9532 16.7175 7.41896 16.499 6.79116 16.5C6.16235 16.5 5.62761 16.719 5.18694 17.157C4.74626 17.595 4.52643 18.126 4.52744 18.75C4.52744 19.375 4.74777 19.9065 5.18845 20.3445C5.62912 20.7825 6.16335 21.001 6.79116 21ZM17.3552 21C17.984 21 18.5187 20.781 18.9594 20.343C19.4001 19.905 19.6199 19.374 19.6189 18.75C19.6189 18.125 19.3986 17.5935 18.9579 17.1555C18.5172 16.7175 17.983 16.499 17.3552 16.5C16.7264 16.5 16.1916 16.719 15.751 17.157C15.3103 17.595 15.0905 18.126 15.0915 18.75C15.0915 19.375 15.3118 19.9065 15.7525 20.3445C16.1931 20.7825 16.7274 21.001 17.3552 21ZM3.69741 4.5H20.5998C20.2226 4.075 19.4111 3.7185 18.1656 3.4305C16.92 3.1425 14.9144 2.999 12.1486 3C9.45732 3 7.48889 3.1565 6.24334 3.4695C4.99779 3.7825 4.14915 4.126 3.69741 4.5ZM6.03659 22.5H18.1098C18.9398 22.5 19.6506 22.206 20.2422 21.618C20.8338 21.03 21.1291 20.324 21.128 19.5V15H3.01829V19.5C3.01829 20.325 3.31409 21.0315 3.90567 21.6195C4.49726 22.2075 5.20756 22.501 6.03659 22.5Z" fill="white"/>
</svg>
